<?xml version="1.0" standalone="no"?><!DOCTYPE svg PUBLIC "-//W3C//DTD SVG 1.1//EN" "http://www.w3.org/Graphics/SVG/1.1/DTD/svg11.dtd"><svg t="1739428495432" class="icon" viewBox="0 0 1024 1024" version="1.1" xmlns="http://www.w3.org/2000/svg" p-id="6094" width="200" height="200" xmlns:xlink="http://www.w3.org/1999/xlink"><path d="M399.616 516.096a26.026667 26.026667 0 0 0-25.941333 25.941333v51.968a25.984 25.984 0 1 0 51.925333 0v-51.968a26.026667 26.026667 0 0 0-25.984-25.941333m34.133333 147.328a25.813333 25.813333 0 0 1 0-36.693333 25.813333 25.813333 0 0 1 36.650667 0 64.853333 64.853333 0 0 0 91.690667 0 25.813333 25.813333 0 0 1 36.650666 0 25.813333 25.813333 0 0 1 0 36.693333 116.48 116.48 0 0 1-164.992 0m173.312-95.573333a26.026667 26.026667 0 1 1 25.984 25.984 25.856 25.856 0 0 1-26.026666-25.984zM128.981333 0A129.024 129.024 0 0 0 0 128.981333v766.037334A129.024 129.024 0 0 0 128.981333 1024h766.037334A129.024 129.024 0 0 0 1024 895.018667V128.981333A129.024 129.024 0 0 0 895.018667 0zM516.266667 161.28h0.170666a268.245333 268.245333 0 0 1 268.074667 268.202667v112.426666h64.341333c73.813333 0 90.453333 103.509333 20.309334 126.72l-84.650667 28.288v48.512a64.554667 64.554667 0 0 1-93.44 57.728l-46.976-23.424c-2.218667-1.024-4.906667 0-5.589333 2.346667-38.058667 118.826667-206.293333 118.826667-244.352 0a4.053333 4.053333 0 0 0-5.546667-2.346667l-47.018667 23.466667a64.554667 64.554667 0 0 1-93.44-57.770667v-48.597333l-84.650666-28.16c-70.272-23.082667-53.504-126.72 20.352-126.72h64.298666v-112.469333A268.16 268.16 0 0 1 516.266667 161.28" p-id="6095" fill="#4d53e8"></path></svg>